<?xml version="1.0" standalone="no"?>
<!DOCTYPE svg PUBLIC "-//W3C//DTD SVG 20010904//EN"
 "http://www.w3.org/TR/2001/REC-SVG-20010904/DTD/svg10.dtd">
<svg version="1.0" xmlns="http://www.w3.org/2000/svg"
 width="16.000000pt" height="16.000000pt" viewBox="0 0 16.000000 16.000000"
 preserveAspectRatio="xMidYMid meet">
<metadata>
Created by potrace 1.11, written by Peter Selinger 2001-2013
</metadata>
<g transform="translate(0.000000,16.000000) scale(0.002286,-0.002286)"
fill="#000000" stroke="none">
<path d="M3260 6989 c-329 -23 -677 -98 -978 -210 -180 -67 -466 -207 -623
-306 -579 -364 -1019 -854 -1310 -1458 -256 -531 -376 -1133 -340 -1702 13
-213 22 -286 56 -468 163 -866 667 -1659 1384 -2178 236 -171 564 -346 833
-446 440 -164 951 -241 1405 -212 213 13 286 22 468 56 309 58 588 152 880
295 992 485 1697 1408 1900 2485 172 919 -16 1837 -536 2610 -696 1034 -1898
1622 -3139 1534z m405 -299 c674 -39 1266 -260 1805 -676 148 -114 430 -396
544 -544 597 -774 810 -1715 604 -2664 -98 -453 -303 -885 -604 -1276 -114
-148 -396 -430 -544 -544 -774 -597 -1715 -810 -2664 -604 -453 98 -885 303
-1276 604 -148 114 -430 396 -544 544 -597 774 -810 1715 -604 2664 98 453
303 885 604 1276 114 148 396 430 544 544 460 355 964 569 1528 651 94 14 194
22 412 33 14 1 102 -3 195 -8z"/>
<path d="M4547 4582 l-357 -357 0 -853 0 -852 360 0 360 0 0 1210 c0 666 -1
1210 -3 1210 -1 0 -163 -161 -360 -358z"/>
<path d="M2095 4899 c-4 -17 -4 -559 0 -1205 l8 -1174 353 0 354 0 0 233 c0
129 3 282 7 341 l6 108 344 -344 343 -343 250 250 c138 138 250 255 250 260 0
6 -429 436 -954 958 -942 935 -954 947 -961 916z"/>
</g>
</svg>
