<?xml version="1.0" encoding="UTF-8" standalone="no"?>
<svg width="19px" height="17px" viewBox="0 0 19 17" version="1.1" xmlns="http://www.w3.org/2000/svg" xmlns:xlink="http://www.w3.org/1999/xlink" xmlns:sketch="http://www.bohemiancoding.com/sketch/ns">
    <!-- Generator: Sketch 3.4.4 (17249) - http://www.bohemiancoding.com/sketch -->
    <title>Shape</title>
    <desc>Created with Sketch.</desc>
    <defs></defs>
    <g id="Page-1" stroke="none" stroke-width="1" fill="none" fill-rule="evenodd" sketch:type="MSPage">
        <g id="Desktop-HD" sketch:type="MSArtboardGroup" transform="translate(-948.000000, -795.000000)" fill="#757575">
            <g id="Article-2" sketch:type="MSLayerGroup" transform="translate(330.000000, 556.000000)">
                <g id="heart" transform="translate(618.000000, 234.000000)" sketch:type="MSShapeGroup">
                    <path d="M9.5,22 C9.416,22 9.333,21.979 9.257,21.937 C9.163,21.885 6.931,20.636 4.665,18.59 C3.324,17.38 2.254,16.142 1.482,14.91 C0.498,13.339 0,11.771 0,10.25 C0,7.355 2.355,5 5.25,5 C6.23,5 7.271,5.367 8.181,6.034 C8.713,6.424 9.166,6.894 9.5,7.393 C9.834,6.894 10.287,6.424 10.819,6.034 C11.729,5.367 12.77,5 13.75,5 C16.645,5 19,7.355 19,10.25 C19,11.771 18.501,13.339 17.518,14.91 C16.747,16.142 15.676,17.38 14.336,18.59 C12.07,20.636 9.838,21.885 9.744,21.937 C9.668,21.979 9.585,22 9.501,22 L9.5,22 Z M5.25,6 C2.907,6 1,7.907 1,10.25 C1,13.29 3.35,16.052 5.321,17.835 C7.081,19.427 8.865,20.543 9.5,20.922 C10.135,20.543 11.919,19.427 13.679,17.835 C15.65,16.053 18,13.29 18,10.25 C18,7.907 16.093,6 13.75,6 C12.047,6 10.393,7.401 9.974,8.658 C9.906,8.862 9.715,9 9.5,9 C9.285,9 9.094,8.862 9.026,8.658 C8.607,7.401 6.953,6 5.25,6 L5.25,6 Z" id="Shape"></path>
                </g>
            </g>
        </g>
    </g>
</svg>