<?xml version="1.0" encoding="utf-8"?>
<!-- Generator: Adobe Illustrator 21.0.2, SVG Export Plug-In . SVG Version: 6.00 Build 0)  -->
<svg version="1.1" id="Layer_1" xmlns="http://www.w3.org/2000/svg" xmlns:xlink="http://www.w3.org/1999/xlink" x="0px" y="0px"
	 viewBox="0 0 207 290" style="enable-background:new 0 0 207 290;" xml:space="preserve">
<style type="text/css">
	.st0{fill:#FFFFFF;}
	.st1{fill:#FF6A00;}
	.st2{fill:url(#SVGID_1_);}
</style>
<g>
	<g>
		<g>
			<path class="st0" d="M103.3,202.2c-54.5,0-98.8-44.3-98.8-98.8c0-54.5,44.3-98.8,98.8-98.8s98.8,44.3,98.8,98.8
				C202.1,157.9,157.8,202.2,103.3,202.2z"/>
			<path class="st1" d="M103.3,9.1c52,0,94.3,42.3,94.3,94.3s-42.3,94.3-94.3,94.3S9,155.4,9,103.4S51.3,9.1,103.3,9.1 M103.3,0.1
				C46.3,0.1,0,46.4,0,103.4s46.3,103.3,103.3,103.3s103.3-46.3,103.3-103.3S160.4,0.1,103.3,0.1L103.3,0.1z"/>
		</g>
		<g>
			<g>
				<polygon class="st1" points="144.9,132.4 123.5,132.4 123.5,82.1 144.9,60.8 				"/>
			</g>
			<linearGradient id="SVGID_1_" gradientUnits="userSpaceOnUse" x1="67.2635" y1="102.3727" x2="70.6814" y2="98.9547">
				<stop  offset="0" style="stop-color:#FF6A00"/>
				<stop  offset="1" style="stop-color:#8E0000"/>
			</linearGradient>
			<polygon class="st2" points="83.1,132.4 61.8,132.4 61.8,62 83.1,83.4 			"/>
			<g>
				<polygon class="st1" points="118.6,117.4 103.5,132.5 61.8,90.8 61.8,60.8 				"/>
			</g>
		</g>
	</g>
	<g>
		<g>
			<path class="st1" d="M61.8,238.3l-7.2,14.6H51l-7.2-14.6v16.8h-6v-26.7h8.1l6.9,14.7l6.9-14.7h8v26.7h-6V238.3z"/>
			<path class="st1" d="M93.6,255.1l-2.5-5.8H79.9l-2.5,5.8h-6.3l11.5-26.7h5.8l11.5,26.7H93.6z M85.5,236.3l-3.4,7.8h6.7
				L85.5,236.3z"/>
			<path class="st1" d="M125,237.3c0,4.3-1.7,7-5.1,8.3l6.8,9.6h-7.3l-5.9-8.5h-4.1v8.5h-6v-26.7h10.1c4.2,0,7.1,0.7,8.9,2.1
				C124.1,231.9,125,234.2,125,237.3z M117.8,240.4c0.7-0.7,1.1-1.7,1.1-3.2c0-1.4-0.4-2.4-1.1-3c-0.8-0.5-2.1-0.8-4-0.8h-4.5v7.9
				h4.4C115.7,241.4,117.1,241.1,117.8,240.4z"/>
			<path class="st1" d="M131.4,228.4h6v26.7h-6V228.4z"/>
			<path class="st1" d="M166.6,251.4c-2.7,2.6-6,4-10,4s-7.3-1.3-10-4s-4-5.9-4-9.8s1.3-7.2,4-9.8s6-4,10-4s7.3,1.3,10,4
				c2.7,2.6,4,5.9,4,9.8S169.3,248.8,166.6,251.4z M164.6,241.6c0-2.4-0.8-4.4-2.3-6.1c-1.5-1.7-3.4-2.5-5.6-2.5
				c-2.2,0-4.1,0.8-5.6,2.5c-1.5,1.7-2.3,3.7-2.3,6.1s0.8,4.4,2.3,6.1c1.5,1.7,3.4,2.5,5.6,2.5c2.2,0,4.1-0.8,5.6-2.5
				C163.8,246,164.6,244,164.6,241.6z"/>
			<path class="st1" d="M43.7,268.2c-0.6,0.5-0.9,1.1-0.9,1.9s0.3,1.4,1.1,1.9c0.7,0.5,2.3,1,4.9,1.6c2.5,0.6,4.5,1.6,5.9,2.8
				c1.4,1.2,2.1,3.1,2.1,5.5c0,2.4-0.9,4.3-2.7,5.8s-4.2,2.2-7.1,2.2c-4.2,0-8-1.6-11.4-4.7l3.6-4.4c2.9,2.5,5.5,3.8,8,3.8
				c1.1,0,2-0.2,2.6-0.7s0.9-1.1,0.9-1.9c0-0.8-0.3-1.4-1-1.9c-0.7-0.5-2-0.9-3.9-1.4c-3.1-0.7-5.4-1.7-6.8-2.9
				c-1.4-1.2-2.2-3-2.2-5.6c0-2.5,0.9-4.5,2.7-5.9s4.1-2.1,6.8-2.1c1.8,0,3.6,0.3,5.3,0.9c1.8,0.6,3.3,1.5,4.7,2.6l-3,4.4
				c-2.3-1.8-4.7-2.6-7.2-2.6C45,267.5,44.3,267.7,43.7,268.2z"/>
			<path class="st1" d="M84.3,285.9c-2.7,2.6-6,4-10,4s-7.3-1.3-10-4s-4-5.9-4-9.8s1.3-7.2,4-9.8s6-4,10-4s7.3,1.3,10,4
				c2.7,2.6,4,5.9,4,9.8S87,283.2,84.3,285.9z M82.3,276.1c0-2.4-0.8-4.4-2.3-6.1c-1.5-1.7-3.4-2.5-5.6-2.5c-2.2,0-4.1,0.8-5.6,2.5
				c-1.5,1.7-2.3,3.7-2.3,6.1s0.8,4.4,2.3,6.1c1.5,1.7,3.4,2.5,5.6,2.5c2.2,0,4.1-0.8,5.6-2.5C81.5,280.5,82.3,278.4,82.3,276.1z"/>
			<path class="st1" d="M100.4,282.7c1,1.2,2.3,1.9,4,1.9c1.7,0,3-0.6,4-1.9c1-1.2,1.5-2.9,1.5-5.1v-14.7h6v14.9
				c0,3.9-1.1,6.8-3.2,8.9s-4.9,3.1-8.2,3.1c-3.3,0-6.1-1-8.2-3.1c-2.2-2.1-3.2-5.1-3.2-8.9v-14.9h6v14.7
				C99,279.7,99.4,281.4,100.4,282.7z"/>
			<path class="st1" d="M133.4,268v21.6h-6V268h-7.6v-5.2h21.1v5.2H133.4z"/>
			<path class="st1" d="M167,285.9c-2.7,2.6-6,4-10,4s-7.3-1.3-10-4s-4-5.9-4-9.8s1.3-7.2,4-9.8s6-4,10-4s7.3,1.3,10,4
				c2.7,2.6,4,5.9,4,9.8S169.7,283.2,167,285.9z M165,276.1c0-2.4-0.8-4.4-2.3-6.1c-1.5-1.7-3.4-2.5-5.6-2.5c-2.2,0-4.1,0.8-5.6,2.5
				c-1.5,1.7-2.3,3.7-2.3,6.1s0.8,4.4,2.3,6.1c1.5,1.7,3.4,2.5,5.6,2.5c2.2,0,4.1-0.8,5.6-2.5C164.3,280.5,165,278.4,165,276.1z"/>
		</g>
	</g>
</g>
</svg>
